<svg width="60" height="60" viewBox="0 0 60 60" fill="none" xmlns="http://www.w3.org/2000/svg">
<path d="M56.25 45V41.25H52.3106C52.0674 40.0767 51.6015 38.961 50.9381 37.9631L53.7319 35.1694L51.0806 32.5181L48.2869 35.3119C47.289 34.6485 46.1733 34.1826 45 33.9394V30H41.25V33.9394C40.0767 34.1826 38.961 34.6485 37.9631 35.3119L35.1694 32.5181L32.5181 35.1694L35.3119 37.9631C34.6485 38.961 34.1826 40.0767 33.9394 41.25H30V45H33.9394C34.1831 46.1944 34.6594 47.3044 35.3119 48.2869L32.5181 51.0806L35.1694 53.7319L37.9631 50.9381C38.961 51.6015 40.0767 52.0674 41.25 52.3106V56.25H45V52.3106C46.1733 52.0674 47.289 51.6015 48.2869 50.9381L51.0806 53.7319L53.7319 51.0806L50.9381 48.2869C51.6015 47.289 52.0674 46.1733 52.3106 45H56.25ZM43.125 48.75C40.0238 48.75 37.5 46.2262 37.5 43.125C37.5 40.0238 40.0238 37.5 43.125 37.5C46.2262 37.5 48.75 40.0238 48.75 43.125C48.75 46.2262 46.2262 48.75 43.125 48.75ZM22.5 11.25H30V15H22.5V11.25Z" fill="#A1C0FF"/>
<path d="M11.25 52.5V7.5H41.25V24.375H45V7.5C45 5.43187 43.3181 3.75 41.25 3.75H11.25C9.18187 3.75 7.5 5.43187 7.5 7.5V52.5C7.5 54.5681 9.18187 56.25 11.25 56.25H26.25V52.5H11.25Z" fill="#A1C0FF"/>
</svg>
