<svg width="122" height="29" viewBox="0 0 122 29" fill="none" xmlns="http://www.w3.org/2000/svg">
<g clip-path="url(#clip0_152_477)">
<path d="M117.731 11.175C120.611 11.175 122 13.186 122 15.516V19.893H118.987V16.036C118.987 14.98 118.602 14.108 117.497 14.108C116.392 14.108 116.024 14.98 116.024 16.036V19.892H113.011V16.036C113.011 14.98 112.643 14.108 111.538 14.108C110.433 14.108 110.048 14.98 110.048 16.036V19.892H107.035V15.516C107.035 13.186 108.424 11.174 111.304 11.174C112.877 11.174 114.015 11.794 114.534 12.817C115.087 11.794 116.292 11.174 117.731 11.174V11.175ZM101.621 17.21C102.592 17.21 103.01 16.322 103.01 15.265V11.51H106.023V15.634C106.023 18.098 104.584 20.144 101.621 20.144C98.658 20.144 97.219 18.099 97.219 15.634V11.51H100.232V15.265C100.232 16.321 100.65 17.21 101.621 17.21ZM92.788 20.16C90.897 20.16 89.675 19.507 88.955 18.233L91.131 17.009C91.432 17.545 91.884 17.814 92.637 17.814C93.257 17.814 93.541 17.596 93.541 17.327C93.541 16.305 89.122 17.344 89.122 14.092C89.122 12.516 90.462 11.242 92.738 11.242C94.73 11.242 95.818 12.214 96.304 13.153L94.127 14.393C93.943 13.891 93.374 13.589 92.805 13.589C92.37 13.589 92.135 13.773 92.135 14.025C92.135 15.065 96.555 14.109 96.555 17.26C96.555 19.02 94.83 20.16 92.788 20.16ZM82.261 23.75H79.248V15.685C79.248 13.12 81.173 11.259 83.851 11.259C86.463 11.259 88.455 13.254 88.455 15.685C88.455 18.368 86.68 20.145 84.019 20.145C83.399 20.145 82.78 19.961 82.261 19.675V23.75ZM83.851 17.312C84.806 17.312 85.441 16.574 85.441 15.702C85.441 14.814 84.806 14.092 83.851 14.092C82.897 14.092 82.261 14.814 82.261 15.702C82.261 16.574 82.897 17.312 83.851 17.312ZM76.23 10.622C75.234 10.614 74.429 9.808 74.422 8.812C74.422 7.822 75.242 7.001 76.23 7.001C77.218 7.001 78.038 7.823 78.038 8.811C78.038 9.801 77.218 10.622 76.23 10.622ZM74.724 11.511H77.737V19.894H74.724V11.511ZM68.943 20.145C66.331 20.145 64.339 18.133 64.339 15.685C64.339 13.255 66.331 11.243 68.943 11.243C71.554 11.243 73.546 13.254 73.546 15.685C73.546 18.133 71.554 20.145 68.943 20.145ZM68.943 17.312C69.897 17.312 70.533 16.574 70.533 15.702C70.533 14.814 69.897 14.076 68.943 14.076C67.988 14.076 67.353 14.814 67.353 15.702C67.353 16.574 67.988 17.312 68.943 17.312ZM58.65 24C56.575 24 55.068 23.078 54.298 21.434L56.792 20.094C57.06 20.664 57.562 21.251 58.599 21.251C59.689 21.251 60.408 20.563 60.492 19.356C60.09 19.708 59.453 19.976 58.5 19.976C56.172 19.976 54.297 18.182 54.297 15.667C54.297 13.237 56.29 11.258 58.901 11.258C61.58 11.258 63.504 13.12 63.504 15.684V19.004C63.504 22.022 61.412 24 58.65 24ZM58.85 17.143C59.754 17.143 60.441 16.523 60.441 15.6C60.441 14.695 59.755 14.092 58.851 14.092C57.964 14.092 57.261 14.695 57.261 15.601C57.261 16.523 57.964 17.143 58.851 17.143H58.85ZM49.187 20.144C46.575 20.144 44.583 18.132 44.583 15.684C44.583 13.254 46.575 11.242 49.187 11.242C51.797 11.242 53.79 13.253 53.79 15.684C53.79 18.132 51.798 20.144 49.187 20.144ZM49.187 17.311C50.141 17.311 50.777 16.573 50.777 15.701C50.777 14.813 50.141 14.075 49.187 14.075C48.233 14.075 47.597 14.813 47.597 15.701C47.597 16.573 48.233 17.311 49.187 17.311ZM39.097 8.576V17.042H44.085V19.892H38.678C36.77 19.892 36 18.887 36 17.294V8.576H39.097ZM14.491 29C22.505 29 29 22.508 29 14.5V4.35C29 3.196 28.542 2.089 27.725 1.273C26.909 0.457002 25.801 -0.000998366 24.647 1.63412e-06H15.217V6.361C15.217 7.813 15.305 9.316 16.067 10.551C17.17 12.343 18.998 13.567 21.075 13.906L21.353 13.951C21.588 14.031 21.746 14.252 21.746 14.5C21.746 14.748 21.588 14.969 21.353 15.049L21.075 15.094C18 15.596 15.59 18.006 15.085 21.08L15.04 21.358C14.96 21.593 14.739 21.751 14.491 21.751C14.243 21.751 14.022 21.593 13.942 21.358L13.897 21.08C13.558 19.004 12.333 17.177 10.541 16.075C9.304 15.314 7.8 15.225 6.348 15.225H0C0.38 22.896 6.722 29 14.491 29Z" fill="white"/>
<path d="M6.57997e-06 14H6.32001C7.76101 14 9.25501 13.91 10.482 13.136C11.446 12.527 12.254 11.701 12.841 10.724C13.597 9.468 13.685 7.94 13.685 6.465V0H4.32001C3.16901 0.003 2.06701 0.469 1.26501 1.295C0.452007 2.132 -0.00199342 3.253 6.57997e-06 4.42V14Z" fill="white"/>
</g>
<defs>
<clipPath id="clip0_152_477">
<rect width="122" height="29" fill="white"/>
</clipPath>
</defs>
</svg>
