<svg width="150" height="4006" viewBox="0 0 150 4006" fill="none" xmlns="http://www.w3.org/2000/svg">
<g clip-path="url(#clip0_152_468)">
<path d="M144.751 1543.69C148.292 1543.69 150 1821.49 150 2143.35V2747.98H146.295V2215.18C146.295 2069.31 145.822 1948.85 144.464 1948.85C143.105 1948.85 142.652 2069.31 142.652 2215.18V2747.84H138.948V2215.18C138.948 2069.31 138.495 1948.85 137.137 1948.85C135.778 1948.85 135.305 2069.31 135.305 2215.18V2747.84H131.6V2143.35C131.6 1821.49 133.308 1543.55 136.849 1543.55C138.783 1543.55 140.182 1629.2 140.82 1770.51C141.5 1629.2 142.982 1543.55 144.751 1543.55V1543.69ZM124.944 2377.35C126.138 2377.35 126.652 2254.69 126.652 2108.68V1589.97H130.356V2159.65C130.356 2500.02 128.587 2782.65 124.944 2782.65C121.301 2782.65 119.532 2500.16 119.532 2159.65V1589.97H123.236V2108.68C123.236 2254.55 123.75 2377.35 124.944 2377.35ZM114.084 2784.86C111.759 2784.86 110.256 2694.66 109.371 2518.67L112.046 2349.59C112.416 2423.63 112.972 2460.79 113.898 2460.79C114.66 2460.79 115.009 2430.68 115.009 2393.52C115.009 2252.34 109.576 2395.86 109.576 1946.64C109.576 1728.93 111.224 1552.95 114.022 1552.95C116.471 1552.95 117.809 1687.22 118.407 1816.93L115.73 1988.22C115.504 1918.87 114.804 1877.16 114.105 1877.16C113.57 1877.16 113.281 1902.57 113.281 1937.38C113.281 2081.05 118.715 1948.99 118.715 2384.26C118.715 2627.38 116.594 2784.86 114.084 2784.86ZM101.141 3280.78H97.4361V2166.69C97.4361 1812.37 99.8029 1555.3 103.095 1555.3C106.307 1555.3 108.756 1830.88 108.756 2166.69C108.756 2537.32 106.574 2782.79 103.302 2782.79C102.54 2782.79 101.779 2757.37 101.141 2717.86V3280.78ZM103.095 2391.44C104.27 2391.44 105.05 2289.5 105.05 2169.04C105.05 2046.38 104.27 1946.64 103.095 1946.64C101.923 1946.64 101.141 2046.38 101.141 2169.04C101.141 2289.5 101.923 2391.44 103.095 2391.44ZM93.7254 1467.3C92.5008 1466.2 91.5111 1354.86 91.5024 1217.27C91.5024 1080.52 92.5107 967.104 93.7254 967.104C94.9402 967.104 95.9484 1080.65 95.9484 1217.13C95.9484 1353.89 94.9402 1467.3 93.7254 1467.3ZM91.8738 1590.11H95.5783V2748.12H91.8738V1590.11ZM84.766 2782.79C81.5545 2782.79 79.1053 2504.86 79.1053 2166.69C79.1053 1831.02 81.5545 1553.08 84.766 1553.08C87.9762 1553.08 90.4254 1830.88 90.4254 2166.69C90.4254 2504.86 87.9762 2782.79 84.766 2782.79ZM84.766 2391.44C85.9389 2391.44 86.7209 2289.5 86.7209 2169.04C86.7209 2046.38 85.9389 1944.43 84.766 1944.43C83.5918 1944.43 82.8111 2046.38 82.8111 2169.04C82.8111 2289.5 83.5918 2391.44 84.766 2391.44ZM72.1107 3315.31C69.5594 3315.31 67.7066 3187.95 66.7598 2960.85L69.8262 2775.74C70.1557 2854.48 70.7729 2935.57 72.048 2935.57C73.3881 2935.57 74.2721 2840.53 74.3754 2673.8C73.8811 2722.42 73.0979 2759.44 71.9262 2759.44C69.0639 2759.44 66.7586 2511.62 66.7586 2164.21C66.7586 1828.53 69.209 1555.16 72.4193 1555.16C75.7131 1555.16 78.0787 1812.37 78.0787 2166.56V2625.17C78.0787 3042.07 75.5066 3315.31 72.1107 3315.31ZM72.3566 2368.1C73.468 2368.1 74.3127 2282.45 74.3127 2154.95C74.3127 2029.94 73.4693 1946.64 72.3578 1946.64C71.2672 1946.64 70.4029 2029.94 70.4029 2155.09C70.4029 2282.45 71.2672 2368.1 72.3578 2368.1H72.3566ZM60.4758 2782.65C57.2643 2782.65 54.8152 2504.72 54.8152 2166.56C54.8152 1830.88 57.2643 1552.95 60.4758 1552.95C63.6848 1552.95 66.1352 1830.74 66.1352 2166.56C66.1352 2504.72 63.6861 2782.65 60.4758 2782.65ZM60.4758 2391.31C61.6488 2391.31 62.4307 2289.36 62.4307 2168.9C62.4307 2046.24 61.6488 1944.29 60.4758 1944.29C59.3029 1944.29 58.5209 2046.24 58.5209 2168.9C58.5209 2289.36 59.3029 2391.31 60.4758 2391.31ZM48.0701 1184.67V2354.15H54.2029V2747.84H47.5549C45.209 2747.84 44.2623 2609.01 44.2623 2388.96V1184.67H48.0701ZM17.8168 4006C27.6701 4006 35.6557 3109.21 35.6557 2003V600.9C35.6557 441.489 35.0926 288.57 34.0881 175.85C33.0848 63.1293 31.7225 -0.137912 30.3037 0.000225734H18.7094V878.696C18.7094 1079.27 18.8176 1286.89 19.7545 1457.49C21.1107 1705.04 23.3582 1874.12 25.9119 1920.95L26.2537 1927.16C26.5426 1938.21 26.7369 1968.74 26.7369 2003C26.7369 2037.26 26.5426 2067.79 26.2537 2078.84L25.9119 2085.05C22.1311 2154.4 19.168 2487.31 18.5471 2911.95L18.4918 2950.35C18.3934 2982.81 18.1217 3004.64 17.8168 3004.64C17.5119 3004.64 17.2402 2982.81 17.1418 2950.35L17.0865 2911.95C16.6697 2625.17 15.1635 2372.8 12.9602 2220.57C11.4393 2115.44 9.59016 2103.15 7.80492 2103.15H0C0.467213 3162.81 8.26475 4006 17.8168 4006Z" fill="white"/>
<path d="M8.09013e-06 1933.93H7.7705C9.54222 1933.93 11.3791 1921.5 12.8877 1814.58C14.073 1730.45 15.0664 1616.35 15.7881 1481.39C16.7176 1307.89 16.8258 1096.82 16.8258 893.062V0H5.31148C3.89632 0.414414 2.5414 64.7867 1.55534 178.889C0.555746 294.51 -0.00245093 449.363 8.09013e-06 610.57V1933.93Z" fill="white"/>
</g>
<defs>
<clipPath id="clip0_152_468">
<rect width="150" height="4006" fill="white"/>
</clipPath>
</defs>
</svg>
