<svg width="125" height="30" viewBox="0 0 125 30" fill="none" xmlns="http://www.w3.org/2000/svg">
<g clip-path="url(#clip0_152_476)">
<path d="M38.132 20.589H46.921V17.955H41.256V8.03299H38.132V20.589ZM52.127 18.833C50.874 18.833 50.221 17.743 50.221 16.111C50.221 14.478 50.874 13.371 52.127 13.371C53.38 13.371 54.051 14.478 54.051 16.111C54.051 17.744 53.381 18.833 52.127 18.833ZM52.145 20.87C55.057 20.87 56.963 18.815 56.963 16.11C56.963 13.406 55.057 11.352 52.145 11.352C49.251 11.352 47.31 13.406 47.31 16.111C47.31 18.815 49.25 20.87 52.145 20.87ZM62.003 23.697C63.343 23.697 64.526 23.398 65.32 22.697C66.044 22.047 66.52 21.063 66.52 19.711V11.598H63.767V12.563H63.732C63.202 11.808 62.391 11.334 61.191 11.334C58.95 11.334 57.397 13.196 57.397 15.83C57.397 18.587 59.285 20.097 61.315 20.097C62.409 20.097 63.097 19.658 63.626 19.061H63.696V19.957C63.696 21.045 63.186 21.677 61.967 21.677C61.014 21.677 60.538 21.274 60.379 20.799H57.591C57.873 22.679 59.514 23.697 62.003 23.697ZM61.985 17.972C60.909 17.972 60.203 17.094 60.203 15.742C60.203 14.372 60.909 13.494 61.985 13.494C63.185 13.494 63.82 14.513 63.82 15.724C63.82 16.989 63.238 17.972 61.985 17.972ZM72.18 18.833C70.928 18.833 70.275 17.743 70.275 16.111C70.275 14.478 70.928 13.371 72.181 13.371C73.434 13.371 74.105 14.478 74.105 16.111C74.105 17.744 73.433 18.833 72.18 18.833ZM72.199 20.87C75.11 20.87 77.016 18.815 77.016 16.11C77.016 13.406 75.11 11.352 72.199 11.352C69.305 11.352 67.363 13.406 67.363 16.111C67.363 18.815 69.305 20.87 72.199 20.87ZM77.856 20.589H80.732V11.598H77.856V20.588V20.589ZM77.856 10.351H80.732V8.03299H77.856V10.351ZM81.98 23.557H84.857V19.658H84.893C85.457 20.413 86.287 20.87 87.451 20.87C89.816 20.87 91.387 19.008 91.387 16.093C91.387 13.389 89.922 11.334 87.522 11.334C86.287 11.334 85.404 11.879 84.787 12.686H84.734V11.598H81.98V23.557ZM86.71 18.657C85.475 18.657 84.77 17.657 84.77 16.198C84.77 14.741 85.404 13.635 86.657 13.635C87.893 13.635 88.475 14.653 88.475 16.198C88.475 17.726 87.805 18.658 86.71 18.658V18.657ZM96.07 20.87C98.435 20.87 100.182 19.851 100.182 17.884C100.182 15.584 98.312 15.18 96.722 14.917C95.576 14.706 94.552 14.618 94.552 13.986C94.552 13.424 95.099 13.161 95.805 13.161C96.599 13.161 97.146 13.406 97.252 14.214H99.9C99.76 12.44 98.383 11.334 95.824 11.334C93.689 11.334 91.924 12.318 91.924 14.214C91.924 16.321 93.6 16.743 95.171 17.006C96.371 17.217 97.465 17.305 97.465 18.113C97.465 18.693 96.918 19.008 96.053 19.008C95.1 19.008 94.5 18.569 94.394 17.674H91.677C91.765 19.658 93.423 20.87 96.07 20.87ZM104.089 20.852C105.342 20.852 106.136 20.36 106.789 19.482H106.842V20.589H109.595V11.598H106.718V16.62C106.718 17.691 106.118 18.429 105.13 18.429C104.212 18.429 103.771 17.884 103.771 16.901V11.598H100.912V17.498C100.912 19.5 102.007 20.852 104.089 20.852ZM110.846 20.589H113.722V15.549C113.722 14.478 114.251 13.722 115.151 13.722C116.016 13.722 116.422 14.284 116.422 15.25V20.589H119.299V15.549C119.299 14.478 119.81 13.722 120.728 13.722C121.593 13.722 121.999 14.284 121.999 15.25V20.589H124.875V14.74C124.875 12.72 123.851 11.333 121.804 11.333C120.64 11.333 119.669 11.825 118.963 12.913H118.928C118.469 11.948 117.569 11.333 116.387 11.333C115.081 11.333 114.216 11.948 113.651 12.879H113.599V11.597H110.846V20.587V20.589Z" fill="white"/>
<path d="M15.2091 29.37C7.08605 29.369 0.503052 22.817 0.503052 14.735C0.503052 6.65301 7.08805 0.101013 15.2091 0.101013C23.3301 0.101013 29.9151 6.65301 29.9151 14.735C29.9151 22.817 23.3321 29.369 15.2101 29.37H15.2091ZM19.7971 6.91801C20.0201 6.12801 19.2501 5.66201 18.5471 6.16001L8.73305 13.118C7.97105 13.658 8.09105 14.735 8.91305 14.735H11.4981V14.715H16.5341L12.4301 16.156L10.6211 22.552C10.3981 23.342 11.1681 23.808 11.8711 23.31L21.6851 16.353C22.4471 15.812 22.3271 14.735 21.5051 14.735H17.5851L19.7971 6.91801Z" fill="white"/>
</g>
<defs>
<clipPath id="clip0_152_476">
<rect width="125" height="30" fill="white"/>
</clipPath>
</defs>
</svg>
