<svg width="137" height="30" viewBox="0 0 137 30" fill="none" xmlns="http://www.w3.org/2000/svg">
<path d="M40.13 20.022C40.13 20.677 39.994 21.18 39.723 21.532C39.459 21.883 39.018 22.059 38.399 22.059C37.815 22.059 37.402 21.883 37.159 21.531C36.922 21.18 36.804 20.677 36.804 20.021V9.093C36.804 8.438 36.922 7.935 37.159 7.583C37.402 7.233 37.815 7.056 38.399 7.056C39.018 7.056 39.459 7.232 39.723 7.584C39.994 7.935 40.13 8.438 40.13 9.094V20.023V20.022ZM41.14 16.848C41.14 16.117 41.257 15.428 41.494 14.779C41.729 14.137 42.099 13.552 42.578 13.063C43.064 12.573 43.669 12.184 44.392 11.895C45.122 11.605 45.976 11.46 46.956 11.46C47.895 11.46 48.726 11.595 49.448 11.863C50.171 12.133 50.779 12.508 51.273 12.991C51.768 13.47 52.153 14.053 52.398 14.697C52.656 15.352 52.784 16.068 52.784 16.847C52.788 17.549 52.665 18.247 52.419 18.905C52.179 19.542 51.806 20.12 51.325 20.601C50.838 21.083 50.23 21.469 49.5 21.759C48.77 22.042 47.923 22.183 46.956 22.183C46.004 22.183 45.163 22.049 44.434 21.78C43.711 21.504 43.103 21.128 42.609 20.652C42.124 20.172 41.747 19.594 41.504 18.957C41.257 18.281 41.133 17.567 41.139 16.847L41.14 16.848ZM44.61 16.848C44.61 17.302 44.653 17.737 44.736 18.15C44.819 18.557 44.951 18.915 45.132 19.226C45.32 19.536 45.563 19.784 45.862 19.97C46.161 20.15 46.526 20.239 46.956 20.239C47.353 20.239 47.696 20.156 47.989 19.991C48.287 19.826 48.539 19.587 48.719 19.298C48.913 19.002 49.059 18.647 49.156 18.233C49.254 17.813 49.302 17.351 49.302 16.847C49.304 16.413 49.259 15.979 49.167 15.555C49.095 15.172 48.957 14.805 48.76 14.469C48.583 14.163 48.332 13.907 48.03 13.725C47.738 13.539 47.38 13.445 46.956 13.445C46.532 13.445 46.171 13.535 45.872 13.715C45.572 13.895 45.321 14.147 45.142 14.448C44.955 14.758 44.819 15.121 44.736 15.534C44.651 15.966 44.609 16.406 44.611 16.847L44.61 16.848ZM61.342 20.063C61.165 20.394 60.933 20.692 60.654 20.943C60.389 21.183 60.094 21.383 59.767 21.542C59.438 21.697 59.091 21.811 58.735 21.883C58.367 21.953 57.994 21.987 57.62 21.987C56.98 21.987 56.397 21.873 55.868 21.645C55.346 21.422 54.88 21.087 54.503 20.663C54.127 20.229 53.836 19.698 53.627 19.071C53.418 18.443 53.314 17.726 53.314 16.92C53.314 16.161 53.411 15.451 53.606 14.79C53.781 14.168 54.067 13.583 54.451 13.063C54.826 12.573 55.285 12.187 55.827 11.905C56.369 11.622 56.987 11.481 57.682 11.481C58.475 11.481 59.177 11.633 59.788 11.936C60.407 12.239 60.938 12.736 61.383 13.425V13.156C61.383 12.66 61.519 12.287 61.79 12.039C62.068 11.784 62.45 11.657 62.937 11.657C63.229 11.657 63.475 11.705 63.677 11.802C63.878 11.892 64.038 12.029 64.157 12.215C64.275 12.395 64.357 12.618 64.407 12.887C64.462 13.149 64.49 13.449 64.49 13.787V20.715C64.49 21.555 64.382 22.307 64.167 22.969C63.978 23.597 63.642 24.171 63.187 24.644C62.742 25.099 62.172 25.444 61.477 25.678C60.782 25.919 59.955 26.04 58.996 26.04C58.322 26.04 57.724 26.009 57.203 25.947C56.751 25.904 56.304 25.817 55.868 25.688C55.493 25.558 55.208 25.413 55.013 25.254C54.829 25.102 54.726 24.873 54.733 24.634C54.733 24.489 54.753 24.351 54.795 24.22C54.836 24.089 54.899 23.972 54.982 23.868C55.08 23.767 55.197 23.686 55.326 23.631C55.497 23.572 55.677 23.544 55.858 23.548C56.08 23.548 56.303 23.562 56.525 23.589C56.755 23.617 56.991 23.644 57.235 23.672C57.485 23.706 57.745 23.737 58.016 23.765C58.294 23.792 58.593 23.806 58.913 23.806C59.257 23.811 59.6 23.773 59.934 23.693C60.234 23.617 60.487 23.483 60.695 23.289C60.904 23.096 61.064 22.838 61.175 22.514C61.286 22.197 61.342 21.79 61.342 21.294V20.063ZM61.342 16.848C61.342 16.344 61.303 15.886 61.227 15.472C61.172 15.101 61.048 14.743 60.862 14.418C60.697 14.13 60.456 13.893 60.164 13.735C59.872 13.57 59.507 13.487 59.069 13.487C58.638 13.487 58.28 13.573 57.995 13.745C57.717 13.918 57.495 14.155 57.328 14.459C57.151 14.792 57.031 15.152 56.973 15.524C56.909 15.955 56.878 16.391 56.88 16.827C56.88 17.881 57.067 18.674 57.443 19.205C57.818 19.735 58.363 20.001 59.079 20.001C59.391 19.999 59.699 19.936 59.986 19.815C60.269 19.687 60.516 19.492 60.706 19.246C60.925 18.956 61.084 18.626 61.175 18.274C61.286 17.881 61.342 17.407 61.342 16.848ZM65.447 16.848C65.447 16.117 65.565 15.428 65.802 14.779C66.037 14.137 66.407 13.552 66.886 13.063C67.373 12.573 67.977 12.184 68.7 11.895C69.43 11.605 70.285 11.46 71.265 11.46C72.203 11.46 73.033 11.595 73.756 11.863C74.479 12.133 75.087 12.508 75.581 12.991C76.077 13.47 76.461 14.053 76.707 14.697C76.964 15.352 77.092 16.068 77.092 16.847C77.096 17.549 76.973 18.247 76.727 18.905C76.487 19.542 76.114 20.12 75.633 20.601C75.146 21.083 74.538 21.469 73.808 21.759C73.078 22.042 72.231 22.183 71.265 22.183C70.312 22.183 69.471 22.049 68.742 21.78C68.019 21.504 67.411 21.128 66.917 20.652C66.432 20.172 66.055 19.594 65.812 18.957C65.565 18.281 65.441 17.568 65.447 16.848ZM68.919 16.848C68.919 17.302 68.961 17.737 69.044 18.15C69.127 18.557 69.26 18.915 69.44 19.226C69.628 19.536 69.871 19.784 70.17 19.97C70.469 20.15 70.834 20.239 71.265 20.239C71.661 20.239 72.005 20.156 72.297 19.991C72.595 19.826 72.847 19.587 73.027 19.298C73.234 18.971 73.382 18.611 73.464 18.233C73.562 17.813 73.61 17.351 73.61 16.847C73.61 16.392 73.565 15.962 73.475 15.555C73.403 15.172 73.265 14.805 73.068 14.469C72.891 14.163 72.64 13.907 72.338 13.725C72.047 13.539 71.688 13.445 71.265 13.445C70.841 13.445 70.479 13.535 70.18 13.715C69.88 13.895 69.629 14.147 69.45 14.448C69.263 14.758 69.127 15.121 69.044 15.534C68.959 15.966 68.917 16.407 68.919 16.848ZM81.563 7.976C81.563 8.203 81.511 8.406 81.407 8.586C81.303 8.757 81.164 8.905 81 9.02C80.822 9.142 80.625 9.233 80.416 9.289C79.968 9.404 79.498 9.4 79.051 9.279C78.846 9.222 78.652 9.13 78.477 9.009C78.315 8.891 78.18 8.739 78.081 8.565C77.982 8.384 77.931 8.181 77.935 7.975C77.935 7.775 77.98 7.593 78.071 7.428C78.168 7.255 78.296 7.108 78.456 6.983C78.616 6.859 78.807 6.763 79.03 6.693C79.252 6.625 79.495 6.59 79.76 6.59C79.989 6.59 80.211 6.621 80.427 6.683C80.649 6.745 80.844 6.835 81.01 6.952C81.177 7.069 81.31 7.214 81.407 7.386C81.511 7.559 81.563 7.755 81.563 7.976ZM81.407 20.022C81.407 20.677 81.271 21.18 81 21.532C80.736 21.883 80.295 22.059 79.676 22.059C79.092 22.059 78.679 21.883 78.436 21.531C78.199 21.18 78.081 20.677 78.081 20.021V13.694C78.081 13.039 78.199 12.536 78.436 12.184C78.679 11.833 79.092 11.657 79.676 11.657C80.295 11.657 80.736 11.832 81 12.184C81.271 12.536 81.407 13.039 81.407 13.694V20.022ZM86.2 16.827C86.2 17.289 86.235 17.719 86.305 18.119C86.381 18.519 86.506 18.871 86.68 19.174C86.86 19.47 87.097 19.704 87.389 19.877C87.688 20.049 88.056 20.136 88.494 20.136C88.897 20.136 89.234 20.053 89.505 19.887C89.783 19.715 90.005 19.481 90.173 19.184C90.339 18.881 90.457 18.526 90.527 18.119C90.606 17.682 90.644 17.24 90.642 16.796C90.642 16.416 90.614 16.031 90.558 15.638C90.503 15.238 90.398 14.876 90.246 14.552C90.102 14.239 89.884 13.966 89.61 13.756C89.338 13.549 88.984 13.446 88.546 13.446C88.108 13.446 87.736 13.515 87.431 13.652C87.133 13.789 86.88 14.008 86.701 14.283C86.521 14.566 86.391 14.921 86.315 15.348C86.239 15.768 86.2 16.262 86.2 16.827ZM86.19 13.694C86.364 13.328 86.586 13.008 86.857 12.732C87.383 12.194 88.046 11.812 88.775 11.626C89.125 11.531 89.486 11.482 89.849 11.481C90.489 11.481 91.066 11.622 91.58 11.905C92.094 12.188 92.532 12.573 92.893 13.063C93.261 13.545 93.543 14.118 93.738 14.779C93.932 15.434 94.03 16.137 94.03 16.889C94.038 17.614 93.932 18.336 93.717 19.029C93.536 19.637 93.243 20.205 92.851 20.704C92.491 21.159 92.036 21.53 91.517 21.79C90.983 22.057 90.394 22.191 89.797 22.183C89.019 22.183 88.324 22.003 87.712 21.645C87.088 21.274 86.565 20.756 86.19 20.135V23.858C86.19 24.513 86.055 25.016 85.784 25.368C85.519 25.719 85.078 25.895 84.459 25.895C83.876 25.895 83.462 25.719 83.219 25.368C82.983 25.016 82.865 24.513 82.865 23.858V13.694C82.865 13.039 82.983 12.536 83.219 12.184C83.462 11.833 83.876 11.657 84.459 11.657C85.079 11.657 85.519 11.832 85.784 12.184C86.054 12.536 86.19 13.039 86.19 13.694ZM97.698 14.428C97.692 14.687 97.828 14.928 98.052 15.058C98.289 15.203 98.615 15.324 99.032 15.421C99.428 15.511 99.835 15.596 100.252 15.679C100.669 15.762 101.076 15.859 101.472 15.969C101.867 16.072 102.239 16.196 102.587 16.341C102.934 16.485 103.24 16.668 103.504 16.889C103.769 17.102 103.977 17.364 104.13 17.675C104.283 17.978 104.359 18.343 104.359 18.771C104.359 19.308 104.248 19.788 104.026 20.208C103.797 20.629 103.472 20.99 103.077 21.263C102.674 21.553 102.191 21.776 101.628 21.935C101.02 22.1 100.392 22.183 99.762 22.183C99.116 22.183 98.493 22.142 97.895 22.059C97.352 21.996 96.817 21.874 96.3 21.697C95.842 21.531 95.474 21.328 95.195 21.087C94.918 20.839 94.779 20.549 94.779 20.218C94.779 19.928 94.873 19.705 95.06 19.546C95.248 19.388 95.487 19.308 95.78 19.308C95.891 19.308 96.023 19.329 96.176 19.37C96.329 19.412 96.496 19.463 96.676 19.525C96.856 19.588 97.047 19.656 97.249 19.732C97.458 19.802 97.673 19.863 97.895 19.918C98.174 19.994 98.459 20.056 98.75 20.105C99.054 20.147 99.361 20.167 99.668 20.167C99.862 20.167 100.054 20.149 100.241 20.115C100.429 20.074 100.596 20.015 100.742 19.939C100.887 19.862 101.015 19.757 101.118 19.629C101.217 19.496 101.279 19.339 101.295 19.174C101.315 19.134 101.332 19.093 101.346 19.05C101.361 19.003 101.368 18.954 101.367 18.905C101.367 18.712 101.277 18.54 101.096 18.388C100.923 18.236 100.675 18.116 100.356 18.026C99.846 17.908 99.335 17.794 98.823 17.685C98.368 17.589 97.916 17.479 97.468 17.355C97.084 17.247 96.707 17.112 96.342 16.951C96.029 16.812 95.74 16.624 95.487 16.392C95.254 16.166 95.07 15.895 94.945 15.596C94.82 15.286 94.758 14.91 94.758 14.469C94.758 13.994 94.865 13.569 95.081 13.197C95.303 12.818 95.62 12.501 96.03 12.247C96.44 11.991 96.936 11.798 97.52 11.667C98.17 11.522 98.835 11.452 99.501 11.46C100.821 11.46 101.826 11.619 102.514 11.936C103.209 12.246 103.557 12.653 103.557 13.156C103.557 13.439 103.463 13.656 103.275 13.807C103.081 13.954 102.842 14.031 102.598 14.025C102.458 14.025 102.312 14.001 102.159 13.952C101.984 13.887 101.807 13.829 101.628 13.776C101.382 13.699 101.131 13.64 100.877 13.601C100.526 13.54 100.17 13.512 99.814 13.518C99.494 13.518 99.202 13.532 98.938 13.559C98.681 13.587 98.458 13.635 98.271 13.704C98.091 13.773 97.948 13.866 97.844 13.984C97.744 14.11 97.692 14.267 97.698 14.428ZM108.59 18.223C108.59 18.547 108.632 18.829 108.716 19.071C108.806 19.311 108.927 19.515 109.08 19.681C109.233 19.839 109.41 19.96 109.612 20.042C109.821 20.118 110.043 20.156 110.279 20.156C110.557 20.156 110.825 20.115 111.082 20.032C111.599 19.87 112.02 19.493 112.239 18.998C112.357 18.736 112.416 18.429 112.416 18.078V13.694C112.416 13.039 112.535 12.536 112.771 12.184C113.014 11.833 113.428 11.657 114.012 11.657C114.63 11.657 115.071 11.832 115.335 12.184C115.607 12.536 115.742 13.039 115.742 13.694V20.022C115.742 20.677 115.607 21.18 115.335 21.532C115.071 21.883 114.63 22.059 114.012 22.059C113.428 22.059 113.014 21.883 112.771 21.531C112.535 21.18 112.416 20.677 112.416 20.021C112.271 20.339 112.077 20.632 111.843 20.891C111.613 21.152 111.343 21.38 111.03 21.573C110.724 21.759 110.384 21.903 110.008 22.007C109.617 22.113 109.214 22.165 108.809 22.162C108.35 22.163 107.895 22.082 107.464 21.924C107.044 21.761 106.662 21.515 106.339 21.201C106 20.858 105.734 20.45 105.557 20.001C105.362 19.525 105.265 18.971 105.265 18.336V13.694C105.265 13.039 105.383 12.536 105.619 12.184C105.863 11.833 106.275 11.657 106.86 11.657C107.478 11.657 107.919 11.832 108.184 12.184C108.455 12.536 108.59 13.039 108.59 13.694V18.223ZM117.252 13.694C117.252 13.039 117.37 12.536 117.607 12.184C117.849 11.833 118.263 11.657 118.847 11.657C119.466 11.657 119.907 11.832 120.171 12.184C120.442 12.536 120.578 13.039 120.578 13.694C120.717 13.363 120.904 13.063 121.141 12.794C121.384 12.518 121.659 12.284 121.964 12.091C122.277 11.898 122.614 11.75 122.975 11.646C123.689 11.433 124.448 11.427 125.165 11.626C125.519 11.716 125.846 11.864 126.145 12.07C126.45 12.27 126.718 12.525 126.947 12.835C127.177 13.145 127.354 13.518 127.479 13.952C127.695 13.49 127.948 13.101 128.24 12.784C128.532 12.467 128.849 12.212 129.188 12.019C129.52 11.829 129.879 11.69 130.252 11.605C130.622 11.523 130.999 11.481 131.378 11.481C131.823 11.481 132.247 11.561 132.65 11.719C133.06 11.877 133.418 12.119 133.724 12.443C134.037 12.76 134.283 13.163 134.464 13.653C134.651 14.135 134.745 14.7 134.745 15.348V20.022C134.745 20.677 134.61 21.18 134.338 21.532C134.075 21.883 133.633 22.059 133.015 22.059C132.431 22.059 132.017 21.883 131.774 21.531C131.538 21.18 131.42 20.677 131.42 20.021V15.493C131.42 15.183 131.378 14.907 131.295 14.666C131.222 14.437 131.101 14.225 130.94 14.046C130.8 13.878 130.621 13.746 130.419 13.663C130.216 13.573 129.995 13.527 129.773 13.528C129.487 13.528 129.217 13.573 128.96 13.663C128.707 13.75 128.476 13.891 128.282 14.076C128.082 14.28 127.926 14.523 127.823 14.79C127.712 15.08 127.656 15.427 127.656 15.834V20.022C127.656 20.677 127.52 21.18 127.25 21.532C126.986 21.883 126.544 22.059 125.925 22.059C125.342 22.059 124.928 21.883 124.685 21.531C124.449 21.18 124.33 20.677 124.33 20.021V15.69C124.33 14.98 124.181 14.443 123.883 14.077C123.59 13.712 123.191 13.529 122.684 13.529C122.399 13.527 122.116 13.576 121.849 13.674C121.599 13.766 121.372 13.911 121.182 14.098C120.987 14.296 120.834 14.532 120.734 14.791C120.625 15.096 120.572 15.418 120.578 15.742V20.022C120.578 20.678 120.442 21.181 120.171 21.532C119.907 21.884 119.466 22.06 118.847 22.06C118.263 22.06 117.849 21.884 117.607 21.532C117.37 21.181 117.252 20.678 117.252 20.022V13.694ZM15.123 20.294C12.176 20.294 9.786 17.924 9.786 15C9.786 12.076 12.176 9.706 15.123 9.706C18.071 9.706 20.461 12.076 20.461 15C20.461 17.924 18.071 20.294 15.123 20.294Z" fill="white"/>
<path d="M4.783 16.808C3.236 17.079 2.176 18.561 2.769 20.003C3.606 22.033 4.934 23.824 6.635 25.213C9.093 27.219 12.183 28.29 15.356 28.233C18.528 28.18 21.579 27.004 23.966 24.913C25.617 23.466 26.881 21.631 27.646 19.573C28.189 18.111 27.076 16.666 25.521 16.449C23.966 16.233 22.57 17.355 21.801 18.714C21.381 19.457 20.839 20.124 20.197 20.687C18.828 21.887 17.077 22.562 15.257 22.593C13.437 22.625 11.663 22.011 10.253 20.86C9.592 20.319 9.026 19.671 8.58 18.943C7.765 17.612 6.33 16.538 4.783 16.808Z" fill="white"/>
<path d="M28.364 16.654C28.433 16.105 28.468 15.553 28.468 15C28.468 7.69001 22.493 1.76501 15.123 1.76501C7.753 1.76501 1.78 7.69001 1.78 15C1.78 15.719 1.838 16.424 1.95 17.112C2.582 16.266 3.512 15.692 4.552 15.505C5.67 15.309 6.686 15.578 7.545 16.081C7.493 15.723 7.467 15.362 7.467 15C7.467 10.806 10.895 7.40601 15.123 7.40601C19.352 7.40601 22.78 10.806 22.78 15C22.78 15.277 22.765 15.55 22.736 15.819C23.576 15.286 24.583 14.982 25.707 15.139C26.753 15.289 27.702 15.831 28.364 16.654Z" fill="white"/>
</svg>
