<svg width="122" height="30" viewBox="0 0 122 30" fill="none" xmlns="http://www.w3.org/2000/svg">
<g clip-path="url(#clip0_152_474)">
<path d="M35.785 21.185H44.465V18.55H38.87V8.628H35.785V21.185ZM49.607 19.429C48.369 19.429 47.724 18.339 47.724 16.707C47.724 15.073 48.369 13.967 49.607 13.967C50.844 13.967 51.507 15.073 51.507 16.707C51.507 18.34 50.844 19.429 49.607 19.429ZM49.624 21.466C52.5 21.466 54.382 19.411 54.382 16.706C54.382 14.002 52.5 11.948 49.624 11.948C46.766 11.948 44.849 14.002 44.849 16.707C44.849 19.411 46.766 21.466 49.624 21.466ZM59.36 24.293C60.684 24.293 61.852 23.994 62.636 23.292C63.351 22.642 63.821 21.659 63.821 20.307V12.194H61.103V13.159H61.068C60.545 12.404 59.743 11.93 58.558 11.93C56.344 11.93 54.811 13.791 54.811 16.426C54.811 19.183 56.676 20.693 58.68 20.693C59.76 20.693 60.44 20.254 60.963 19.657H61.033V20.552C61.033 21.642 60.527 22.273 59.325 22.273C58.384 22.273 57.913 21.87 57.756 21.395H55.002C55.282 23.275 56.902 24.293 59.36 24.293ZM59.342 18.568C58.279 18.568 57.582 17.69 57.582 16.338C57.582 14.968 58.279 14.09 59.342 14.09C60.527 14.09 61.155 15.109 61.155 16.32C61.155 17.585 60.58 18.568 59.342 18.568ZM69.412 19.429C68.174 19.429 67.529 18.339 67.529 16.707C67.529 15.073 68.174 13.967 69.412 13.967C70.649 13.967 71.312 15.073 71.312 16.707C71.312 18.34 70.649 19.429 69.412 19.429ZM69.429 21.466C72.305 21.466 74.187 19.411 74.187 16.706C74.187 14.002 72.305 11.948 69.429 11.948C66.571 11.948 64.654 14.002 64.654 16.707C64.654 19.411 66.571 21.466 69.429 21.466ZM75.017 21.185H77.857V12.194H75.017V21.185ZM75.017 10.947H77.857V8.62899H75.017V10.947ZM79.09 24.152H81.93V20.254H81.966C82.524 21.009 83.343 21.466 84.493 21.466C86.828 21.466 88.379 19.604 88.379 16.689C88.379 13.985 86.933 11.93 84.563 11.93C83.343 11.93 82.471 12.474 81.861 13.282H81.809V12.194H79.09V24.152ZM83.76 19.253C82.54 19.253 81.844 18.252 81.844 16.794C81.844 15.337 82.471 14.23 83.709 14.23C84.929 14.23 85.504 15.25 85.504 16.794C85.504 18.322 84.84 19.253 83.76 19.253ZM93.005 21.466C95.34 21.466 97.065 20.447 97.065 18.48C97.065 16.18 95.218 15.776 93.65 15.512C92.517 15.302 91.506 15.214 91.506 14.582C91.506 14.02 92.046 13.756 92.743 13.756C93.528 13.756 94.068 14.002 94.173 14.81H96.787C96.647 13.036 95.287 11.93 92.761 11.93C90.651 11.93 88.909 12.914 88.909 14.81C88.909 16.917 90.565 17.339 92.116 17.602C93.301 17.813 94.382 17.901 94.382 18.709C94.382 19.289 93.842 19.604 92.987 19.604C92.047 19.604 91.454 19.165 91.349 18.27H88.665C88.752 20.254 90.39 21.466 93.005 21.466ZM100.924 21.448C102.162 21.448 102.946 20.956 103.591 20.078H103.643V21.185H106.362V12.194H103.521V17.216C103.521 18.287 102.929 19.025 101.953 19.025C101.046 19.025 100.611 18.48 100.611 17.497V12.194H97.787V18.094C97.787 20.096 98.867 21.448 100.924 21.448ZM107.598 21.185H110.439V16.145C110.439 15.073 110.962 14.318 111.851 14.318C112.705 14.318 113.106 14.88 113.106 15.846V21.185H115.946V16.145C115.946 15.073 116.452 14.318 117.358 14.318C118.212 14.318 118.613 14.88 118.613 15.846V21.185H121.454V15.337C121.454 13.317 120.443 11.93 118.421 11.93C117.271 11.93 116.312 12.422 115.615 13.51H115.58C115.127 12.545 114.238 11.93 113.071 11.93C111.781 11.93 110.927 12.545 110.369 13.475H110.317V12.194H107.598V21.185ZM18.452 1.44599L15.596 0.675995L13.189 9.726L11.016 1.55599L8.15998 2.32599L10.508 11.155L4.65998 5.26199L2.56998 7.36999L8.98398 13.833L0.99598 11.677L0.22998 14.554L8.95798 16.911C8.85598 16.468 8.80498 16.014 8.80498 15.559C8.80498 12.269 11.453 9.6 14.719 9.6C17.985 9.6 20.633 12.268 20.633 15.56C20.633 16.021 20.581 16.47 20.483 16.902L28.414 19.044L29.179 16.166L20.417 13.8L28.405 11.644L27.64 8.766L18.878 11.131L24.726 5.23899L22.635 3.13299L16.309 9.50599L18.452 1.44699V1.44599Z" fill="white"/>
<path d="M20.474 16.935C20.234 17.959 19.726 18.901 19.004 19.666L24.75 25.456L26.84 23.349L20.474 16.935ZM18.945 19.727C18.219 20.476 17.307 21.019 16.303 21.301L18.393 29.164L21.25 28.393L18.945 19.727ZM16.196 21.33C15.193 21.59 14.14 21.581 13.142 21.303L11.049 29.173L13.905 29.943L16.196 21.33ZM13.041 21.273C12.051 20.977 11.156 20.426 10.445 19.676L4.685 25.48L6.775 27.587L13.041 21.273ZM10.397 19.625C9.69201 18.866 9.198 17.936 8.962 16.927L1.005 19.076L1.77 21.954L10.397 19.625Z" fill="white"/>
</g>
<defs>
<clipPath id="clip0_152_474">
<rect width="122" height="30" fill="white"/>
</clipPath>
</defs>
</svg>
