<svg width="149" height="30" viewBox="0 0 149 30" fill="none" xmlns="http://www.w3.org/2000/svg">
<g clip-path="url(#clip0_152_475)">
<path d="M18.85 8.764C17.642 7.942 16.214 7.501 14.753 7.5V0C17.671 0 20.523 0.88 22.949 2.528C25.384 4.187 27.275 6.529 28.383 9.26C29.5 12.005 29.792 15.017 29.223 17.926C28.658 20.826 27.254 23.497 25.185 25.606C23.134 27.698 20.503 29.128 17.632 29.712C14.769 30.291 11.799 29.993 9.108 28.858C6.402 27.714 4.098 25.791 2.488 23.334C0.864001 20.858 -0.000999134 17.961 8.66072e-07 15H7.376C7.375 16.481 7.807 17.929 8.619 19.167C9.424 20.396 10.576 21.357 11.929 21.929C13.275 22.497 14.76 22.646 16.192 22.356C17.627 22.064 18.942 21.349 19.968 20.303C21.003 19.248 21.705 17.913 21.987 16.463C22.272 15.009 22.126 13.503 21.567 12.13C21.013 10.765 20.067 9.594 18.85 8.764Z" fill="white"/>
<path d="M7.376 0C7.376 0.985 7.186 1.96 6.815 2.87C6.446 3.778 5.902 4.604 5.215 5.303C4.533 5.998 3.721 6.551 2.824 6.93C1.93 7.306 0.97 7.5 0 7.5V15C1.937 15 3.856 14.612 5.646 13.858C7.44 13.101 9.066 11.996 10.431 10.607C11.805 9.209 12.891 7.556 13.63 5.74C14.372 3.917 14.753 1.968 14.752 0H7.376Z" fill="white"/>
<path d="M92.66 10.84H89.08V22.399H92.66V10.839V10.84ZM89.479 8.675C89.853 9.055 90.32 9.245 90.882 9.245C91.443 9.245 91.903 9.055 92.262 8.675C92.618 8.286 92.811 7.775 92.8 7.248C92.8 6.678 92.621 6.201 92.262 5.821C91.903 5.441 91.443 5.25 90.882 5.25C90.32 5.25 89.852 5.44 89.479 5.82C89.119 6.201 88.94 6.677 88.94 7.248C88.94 7.803 89.12 8.278 89.479 8.675ZM37.734 22.399V5.607H41.407V19.117H48.728V22.399H37.734Z" fill="white"/>
<path d="M55.342 22.66C54.172 22.66 53.112 22.399 52.161 21.875C51.242 21.352 50.475 20.598 49.938 19.687C49.393 18.767 49.12 17.737 49.12 16.595C49.12 15.454 49.393 14.431 49.938 13.527C50.477 12.63 51.244 11.892 52.161 11.387C53.096 10.847 54.157 10.577 55.342 10.577C56.527 10.577 57.588 10.839 58.523 11.363C59.444 11.872 60.212 12.62 60.745 13.527C61.291 14.431 61.565 15.454 61.565 16.595C61.565 17.737 61.291 18.767 60.745 19.687C60.208 20.598 59.442 21.352 58.523 21.875C57.588 22.399 56.527 22.66 55.342 22.66ZM55.342 19.354C55.857 19.354 56.309 19.244 56.699 19.021C57.083 18.789 57.392 18.45 57.588 18.046C57.806 17.618 57.915 17.134 57.915 16.596C57.915 16.056 57.805 15.588 57.588 15.192C57.382 14.793 57.065 14.463 56.675 14.241C56.301 14.003 55.857 13.884 55.342 13.884C54.843 13.884 54.399 14.003 54.009 14.241C53.619 14.463 53.315 14.78 53.096 15.191C52.878 15.604 52.769 16.08 52.769 16.619C52.769 17.142 52.878 17.618 53.096 18.046C53.315 18.458 53.619 18.783 54.009 19.021C54.399 19.243 54.843 19.354 55.342 19.354ZM64.399 26.918C65.35 27.362 66.449 27.584 67.697 27.584C68.913 27.584 69.997 27.338 70.948 26.846C71.869 26.382 72.646 25.675 73.194 24.801C73.74 23.929 74.014 22.898 74.014 21.709V10.839H70.504V11.616C70.235 11.388 69.936 11.198 69.615 11.053C69.007 10.753 68.313 10.601 67.533 10.601C66.489 10.601 65.561 10.855 64.75 11.363C63.936 11.857 63.272 12.564 62.831 13.408C62.364 14.264 62.13 15.232 62.13 16.31C62.13 17.372 62.364 18.34 62.831 19.212C63.276 20.059 63.938 20.773 64.75 21.281C65.56 21.788 66.489 22.041 67.533 22.041C68.297 22.041 68.991 21.891 69.615 21.59C69.917 21.444 70.19 21.272 70.434 21.074V21.804C70.434 22.613 70.177 23.239 69.662 23.683C69.162 24.127 68.469 24.349 67.58 24.349C66.863 24.349 66.247 24.222 65.732 23.969C65.207 23.694 64.745 23.313 64.375 22.85L62.176 25.086C62.722 25.879 63.463 26.49 64.399 26.918ZM69.499 18.474C69.139 18.696 68.711 18.807 68.212 18.807C67.712 18.807 67.276 18.697 66.902 18.474C66.545 18.254 66.254 17.942 66.06 17.57C65.859 17.181 65.754 16.748 65.755 16.31C65.755 15.834 65.857 15.406 66.06 15.025C66.262 14.645 66.55 14.344 66.925 14.122C67.316 13.896 67.761 13.78 68.212 13.789C68.711 13.789 69.139 13.899 69.498 14.122C69.872 14.344 70.153 14.645 70.34 15.025C70.543 15.406 70.644 15.835 70.644 16.31C70.644 16.785 70.543 17.214 70.34 17.594C70.15 17.962 69.858 18.268 69.499 18.474ZM81.545 22.66C80.375 22.66 79.315 22.399 78.364 21.875C77.445 21.352 76.678 20.598 76.141 19.687C75.595 18.767 75.322 17.737 75.322 16.595C75.322 15.454 75.595 14.431 76.142 13.527C76.681 12.63 77.447 11.892 78.364 11.387C79.299 10.847 80.36 10.577 81.545 10.577C82.73 10.577 83.79 10.839 84.725 11.363C85.647 11.872 86.414 12.619 86.948 13.527C87.494 14.431 87.767 15.454 87.767 16.595C87.767 17.737 87.494 18.767 86.948 19.687C86.411 20.598 85.645 21.352 84.726 21.875C83.79 22.399 82.729 22.66 81.545 22.66ZM81.545 19.354C82.059 19.354 82.511 19.244 82.902 19.021C83.292 18.783 83.588 18.458 83.79 18.046C84.009 17.618 84.118 17.134 84.118 16.596C84.118 16.056 84.008 15.588 83.79 15.192C83.585 14.793 83.268 14.463 82.878 14.241C82.504 14.003 82.059 13.884 81.545 13.884C81.045 13.884 80.601 14.003 80.211 14.241C79.821 14.463 79.517 14.78 79.299 15.191C79.081 15.604 78.971 16.08 78.971 16.619C78.971 17.142 79.081 17.618 79.299 18.046C79.517 18.458 79.821 18.783 80.211 19.021C80.601 19.243 81.046 19.354 81.545 19.354ZM101.262 22.636C100.498 22.636 99.796 22.486 99.157 22.185C98.831 22.033 98.525 21.842 98.245 21.617V27.274H94.712V10.84H98.292V11.638C98.551 11.422 98.839 11.236 99.157 11.078C99.812 10.757 100.533 10.594 101.262 10.602C102.338 10.602 103.289 10.864 104.116 11.387C104.955 11.907 105.635 12.648 106.081 13.528C106.565 14.432 106.806 15.462 106.806 16.62C106.806 17.777 106.565 18.808 106.081 19.712C105.635 20.592 104.955 21.332 104.116 21.852C103.289 22.376 102.338 22.636 101.262 22.636ZM100.607 19.354C101.122 19.354 101.566 19.235 101.94 18.997C102.331 18.76 102.634 18.434 102.853 18.022C103.071 17.61 103.18 17.142 103.18 16.619C103.18 16.079 103.071 15.604 102.853 15.192C102.647 14.793 102.33 14.463 101.94 14.241C101.566 14.003 101.13 13.884 100.63 13.884C100.132 13.884 99.687 14.003 99.298 14.241C98.918 14.468 98.61 14.797 98.408 15.191C98.19 15.604 98.081 16.08 98.081 16.619C98.081 17.142 98.182 17.61 98.385 18.022C98.814 18.851 99.674 19.367 100.607 19.354Z" fill="white"/>
<path d="M110.309 22.422C110.957 22.596 111.626 22.684 112.297 22.684C113.716 22.684 114.838 22.351 115.665 21.685C116.507 21.019 116.928 20.123 116.928 18.997C116.928 18.268 116.796 17.681 116.531 17.237C116.282 16.794 115.929 16.419 115.502 16.143C115.085 15.876 114.637 15.66 114.168 15.501C113.728 15.351 113.284 15.216 112.835 15.097C112.478 15.01 112.133 14.883 111.805 14.717C111.541 14.573 111.408 14.383 111.408 14.145C111.402 13.933 111.521 13.738 111.712 13.645C111.915 13.519 112.218 13.455 112.624 13.455C113.045 13.455 113.474 13.543 113.911 13.717C114.363 13.892 114.768 14.193 115.127 14.621L117.162 12.528C116.648 11.862 115.977 11.363 115.15 11.03C114.34 10.68 113.451 10.506 112.484 10.506C111.564 10.506 110.761 10.665 110.075 10.982C109.388 11.299 108.858 11.735 108.484 12.29C108.11 12.83 107.923 13.472 107.923 14.217C107.923 14.914 108.055 15.493 108.32 15.953C108.585 16.397 108.929 16.746 109.349 17C109.77 17.253 110.215 17.451 110.683 17.594C111.15 17.737 111.595 17.872 112.016 17.998C112.437 18.109 112.781 18.244 113.045 18.403C113.326 18.546 113.466 18.76 113.466 19.045C113.466 19.267 113.349 19.441 113.115 19.568C112.897 19.695 112.578 19.758 112.156 19.758C111.578 19.764 111.005 19.651 110.472 19.426C109.966 19.194 109.513 18.862 109.139 18.45L107.104 20.543C107.494 20.971 107.962 21.353 108.507 21.685C109.075 22.004 109.68 22.252 110.309 22.422ZM123.455 22.66C122.41 22.66 121.482 22.446 120.672 22.018C119.897 21.594 119.25 20.97 118.8 20.21C118.347 19.433 118.122 18.546 118.122 17.547V10.839H121.701V17.499C121.701 17.895 121.762 18.236 121.888 18.522C122.028 18.807 122.231 19.029 122.496 19.188C122.761 19.346 123.081 19.426 123.455 19.426C123.985 19.426 124.406 19.259 124.718 18.926C125.03 18.577 125.186 18.102 125.186 17.499V10.839H128.765V17.523C128.765 18.538 128.539 19.433 128.086 20.21C127.636 20.97 126.99 21.594 126.215 22.018C125.42 22.446 124.5 22.66 123.455 22.66ZM134.123 10.84H130.544V22.399H134.123V15.644C134.123 15.247 134.201 14.914 134.357 14.644C134.529 14.375 134.755 14.169 135.035 14.027C135.316 13.867 135.636 13.789 135.994 13.789C136.509 13.789 136.938 13.955 137.281 14.289C137.64 14.605 137.819 15.057 137.819 15.644V22.399H141.398V15.644C141.398 15.247 141.476 14.914 141.632 14.644C141.804 14.375 142.029 14.169 142.311 14.027C142.591 13.867 142.911 13.789 143.269 13.789C143.784 13.789 144.213 13.955 144.556 14.289C144.914 14.605 145.094 15.057 145.094 15.644V22.399H148.673V15.239C148.673 14.272 148.47 13.448 148.065 12.766C147.695 12.088 147.134 11.533 146.451 11.172C145.78 10.792 145.008 10.602 144.135 10.602C143.246 10.602 142.443 10.8 141.726 11.196C141.263 11.446 140.849 11.777 140.503 12.174C140.179 11.757 139.776 11.409 139.316 11.149C138.692 10.784 137.983 10.602 137.188 10.602C136.345 10.602 135.589 10.784 134.919 11.148C134.632 11.297 134.365 11.48 134.123 11.694V10.839V10.84Z" fill="white"/>
</g>
<defs>
<clipPath id="clip0_152_475">
<rect width="149" height="30" fill="white"/>
</clipPath>
</defs>
</svg>
