<svg width="129" height="30" viewBox="0 0 129 30" fill="none" xmlns="http://www.w3.org/2000/svg">
<g clip-path="url(#clip0_152_473)">
<path d="M36.777 21.75H45.292V19.326H39.374V8.005H36.777V21.75ZM50.408 22.036C51.439 22.036 52.346 21.807 53.129 21.349C53.91 20.893 54.547 20.229 54.971 19.43C55.417 18.61 55.639 17.665 55.639 16.596C55.639 15.533 55.419 14.594 54.981 13.78C54.559 12.977 53.921 12.309 53.138 11.851C52.356 11.387 51.446 11.154 50.408 11.154C49.39 11.154 48.49 11.384 47.708 11.842C46.927 12.298 46.289 12.962 45.865 13.76C45.419 14.575 45.197 15.52 45.197 16.596C45.197 17.658 45.413 18.6 45.846 19.421C46.268 20.218 46.902 20.882 47.679 21.34C48.461 21.804 49.37 22.036 50.408 22.036ZM50.408 19.612C49.6 19.612 48.986 19.342 48.566 18.801C48.153 18.253 47.946 17.518 47.946 16.596C47.946 15.698 48.143 14.973 48.538 14.419C48.938 13.859 49.562 13.579 50.408 13.579C51.229 13.579 51.847 13.853 52.26 14.4C52.68 14.947 52.89 15.68 52.89 16.596C52.89 17.48 52.684 18.206 52.27 18.772C51.863 19.332 51.242 19.612 50.408 19.612ZM60.774 22.036C61.258 22.036 61.704 21.979 62.11 21.864C62.524 21.75 62.9 21.588 63.237 21.378V22.418C63.249 22.8 63.151 23.118 62.941 23.373C62.737 23.633 62.464 23.828 62.12 23.955C61.77 24.09 61.397 24.158 61.022 24.155C60.659 24.155 60.322 24.075 60.01 23.917C59.709 23.762 59.463 23.519 59.304 23.22L56.899 24.385C57.293 25.053 57.856 25.59 58.589 25.998C59.319 26.411 60.125 26.618 61.003 26.618C61.76 26.618 62.463 26.516 63.113 26.313C63.762 26.116 64.309 25.813 64.754 25.406C65.206 24.999 65.514 24.48 65.68 23.85C65.738 23.627 65.776 23.401 65.795 23.172C65.82 22.95 65.833 22.711 65.833 22.456V11.441H63.561V12.014C63.203 11.736 62.799 11.523 62.368 11.384C61.898 11.226 61.404 11.148 60.908 11.154C59.921 11.154 59.062 11.39 58.33 11.861C57.593 12.338 57.002 13.008 56.622 13.799C56.221 14.613 56.02 15.546 56.02 16.596C56.02 17.626 56.218 18.552 56.612 19.373C57.013 20.194 57.57 20.843 58.282 21.32C58.995 21.798 59.826 22.036 60.774 22.036ZM61.194 19.726C60.634 19.726 60.176 19.586 59.819 19.306C59.454 19.013 59.179 18.623 59.027 18.18C58.85 17.671 58.763 17.135 58.769 16.596C58.769 16.023 58.859 15.501 59.037 15.03C59.215 14.553 59.489 14.174 59.857 13.894C60.233 13.608 60.71 13.464 61.289 13.464C62.104 13.464 62.686 13.754 63.036 14.334C63.386 14.906 63.561 15.66 63.561 16.596C63.561 17.531 63.383 18.288 63.027 18.867C62.677 19.44 62.066 19.726 61.194 19.726ZM72 22.036C73.03 22.036 73.938 21.807 74.72 21.349C75.501 20.893 76.139 20.229 76.562 19.43C77.008 18.61 77.231 17.665 77.231 16.596C77.231 15.533 77.011 14.594 76.572 13.78C76.151 12.977 75.513 12.309 74.73 11.851C73.947 11.387 73.037 11.154 72 11.154C70.982 11.154 70.081 11.384 69.299 11.842C68.518 12.298 67.88 12.962 67.456 13.76C67.011 14.575 66.788 15.52 66.788 16.596C66.788 17.658 67.004 18.6 67.438 19.421C67.86 20.218 68.494 20.882 69.27 21.34C70.053 21.804 70.963 22.036 72 22.036ZM72 19.612C71.192 19.612 70.578 19.342 70.158 18.801C69.744 18.253 69.538 17.518 69.538 16.596C69.538 15.698 69.735 14.973 70.129 14.419C70.529 13.859 71.153 13.579 71.999 13.579C72.821 13.579 73.439 13.853 73.852 14.4C74.272 14.947 74.482 15.68 74.482 16.596C74.482 17.48 74.275 18.206 73.862 18.772C73.454 19.332 72.834 19.612 72 19.612ZM78.375 10.009H80.972V7.719H78.375V10.009ZM78.375 21.75H80.972V11.44H78.375V21.75ZM82.669 26.332H85.284V21.378C85.621 21.588 85.994 21.75 86.401 21.864C86.84 21.982 87.293 22.04 87.747 22.036C88.695 22.036 89.526 21.798 90.239 21.32C90.951 20.843 91.504 20.194 91.899 19.373C92.3 18.553 92.501 17.626 92.501 16.596C92.501 15.546 92.297 14.613 91.89 13.799C91.515 13.007 90.926 12.336 90.19 11.861C89.459 11.39 88.6 11.154 87.614 11.154C87.079 11.154 86.589 11.231 86.144 11.384C85.716 11.524 85.315 11.737 84.96 12.014V11.441H82.669V26.331V26.332ZM87.327 19.726C86.462 19.726 85.851 19.44 85.494 18.867C85.138 18.288 84.96 17.531 84.96 16.596C84.96 15.66 85.135 14.906 85.485 14.333C85.841 13.754 86.423 13.464 87.232 13.464C87.811 13.464 88.285 13.608 88.654 13.894C89.03 14.174 89.306 14.553 89.484 15.03C89.662 15.5 89.752 16.023 89.752 16.596C89.758 17.135 89.671 17.671 89.494 18.18C89.342 18.623 89.067 19.013 88.702 19.306C88.346 19.586 87.887 19.726 87.327 19.726ZM97.204 22.036C98.553 22.036 99.61 21.734 100.373 21.129C101.137 20.525 101.519 19.695 101.519 18.639C101.519 17.836 101.27 17.203 100.775 16.739C100.284 16.274 99.451 15.889 98.273 15.584C97.472 15.38 96.873 15.214 96.479 15.087C96.091 14.96 95.833 14.836 95.705 14.715C95.586 14.597 95.521 14.434 95.525 14.266C95.525 13.967 95.667 13.738 95.953 13.579C96.247 13.42 96.631 13.356 97.109 13.389C98.12 13.464 98.675 13.897 98.769 14.686L101.423 14.209C101.29 13.274 100.832 12.532 100.049 11.985C99.266 11.431 98.267 11.155 97.051 11.155C95.804 11.155 94.808 11.447 94.064 12.033C93.32 12.618 92.947 13.407 92.947 14.4C92.947 15.19 93.205 15.813 93.72 16.27C94.235 16.723 95.123 17.11 96.383 17.436C96.936 17.577 97.483 17.736 98.025 17.913C98.381 18.033 98.611 18.158 98.712 18.285C98.814 18.405 98.865 18.568 98.865 18.772C98.876 19.075 98.732 19.363 98.483 19.536C98.229 19.714 97.866 19.803 97.395 19.803C96.822 19.803 96.348 19.666 95.973 19.393C95.604 19.119 95.365 18.74 95.257 18.256L92.603 18.657C92.775 19.733 93.259 20.567 94.055 21.158C94.856 21.744 95.905 22.036 97.204 22.036ZM106.308 22.055C107.053 22.055 107.702 21.931 108.256 21.683C108.784 21.453 109.259 21.115 109.649 20.691V21.75H111.94V11.44H109.325V16.672C109.325 17.308 109.251 17.824 109.105 18.218C108.965 18.606 108.784 18.902 108.561 19.106C108.338 19.303 108.1 19.436 107.845 19.506C107.591 19.576 107.352 19.612 107.129 19.612C106.576 19.612 106.146 19.488 105.841 19.24C105.545 18.996 105.32 18.676 105.191 18.314C105.061 17.961 104.981 17.591 104.953 17.216C104.93 16.914 104.917 16.612 104.915 16.309V11.441H102.28V17.225C102.28 17.397 102.293 17.671 102.318 18.046C102.344 18.422 102.417 18.839 102.538 19.296C102.659 19.749 102.859 20.185 103.139 20.605C103.426 21.025 103.823 21.371 104.333 21.645C104.841 21.919 105.5 22.055 106.308 22.055ZM113.443 21.75H116.059V15.507C116.059 14.916 116.221 14.435 116.545 14.066C116.876 13.69 117.312 13.503 117.853 13.503C118.42 13.503 118.862 13.693 119.18 14.075C119.504 14.451 119.667 14.979 119.667 15.66V21.75H122.263V15.507C122.263 14.916 122.425 14.435 122.75 14.066C123.081 13.69 123.517 13.503 124.057 13.503C124.624 13.503 125.066 13.693 125.384 14.075C125.709 14.451 125.872 14.979 125.872 15.66V21.75H128.467V14.973C128.467 13.846 128.165 12.936 127.561 12.243C126.963 11.543 126.075 11.193 124.897 11.193C124.236 11.193 123.628 11.336 123.074 11.623C122.538 11.894 122.082 12.298 121.747 12.796C121.479 12.311 121.083 11.908 120.602 11.632C120.106 11.339 119.488 11.192 118.75 11.192C118.157 11.186 117.569 11.313 117.032 11.565C116.527 11.793 116.083 12.136 115.734 12.567V11.441H113.443V21.75ZM15 0C6.716 0 0 6.716 0 15C8.284 15 15 8.284 15 0ZM15 30C23.284 30 30 23.284 30 15C21.716 15 15 21.716 15 30ZM15 0C23.284 0 30 6.716 30 15C21.716 15 15 8.284 15 0ZM15 30C6.716 30 0 23.284 0 15C8.284 15 15 21.716 15 30Z" fill="white"/>
</g>
<defs>
<clipPath id="clip0_152_473">
<rect width="129" height="30" fill="white"/>
</clipPath>
</defs>
</svg>
