<svg width="35" height="35" viewBox="0 0 35 35" fill="none" xmlns="http://www.w3.org/2000/svg">
<path d="M29.243 15L12.791 5.434C12.3214 5.15416 11.7857 5.00436 11.239 5C10.379 5 9.556 5.343 8.949 5.955C8.34098 6.56765 7.99985 7.39585 8 8.259V28.789C8 29.363 8.153 29.926 8.443 30.42C8.73165 30.9139 9.14741 31.3214 9.647 31.6C10.1453 31.8774 10.7092 32.0154 11.2793 31.9996C11.8495 31.9838 12.4048 31.8146 12.887 31.51L29.358 21.037C29.8707 20.7139 30.291 20.2637 30.578 19.73C30.8658 19.1946 31.011 18.5941 30.9994 17.9864C30.9879 17.3786 30.82 16.7841 30.512 16.26C30.205 15.7374 29.7678 15.3033 29.243 15Z" fill="white"/>
</svg>
