<svg width="140" height="30" viewBox="0 0 140 30" fill="none" xmlns="http://www.w3.org/2000/svg">
<path d="M22.42 13.371C21.652 14.143 21.269 15.216 21.373 16.3L21.355 16.282C21.463 17.557 21.003 18.814 20.098 19.719C19.193 20.624 17.936 21.084 16.661 20.976L16.679 20.994C15.135 20.85 13.666 21.69 13.007 23.093C12.348 24.497 12.64 26.164 13.737 27.26C14.834 28.356 16.501 28.646 17.904 27.986C19.307 27.325 20.145 25.856 20 24.312L20.019 24.33C19.911 23.055 20.371 21.798 21.276 20.893C22.181 19.988 23.438 19.528 24.713 19.636L24.694 19.618C26.616 19.779 28.335 18.426 28.63 16.52C28.925 14.614 27.695 12.805 25.814 12.378C24.588 12.107 23.309 12.482 22.422 13.371H22.42Z" fill="white"/>
<path d="M15.042 18.636L15.023 18.618C16.107 18.727 17.183 18.343 17.953 17.573C18.724 16.803 19.108 15.728 19 14.644L19.019 14.662C18.912 13.387 19.372 12.13 20.276 11.225C21.181 10.321 22.438 9.861 23.713 9.968L23.694 9.95C25.238 10.095 26.707 9.256 27.366 7.853C28.026 6.45 27.735 4.784 26.639 3.687C25.542 2.591 23.876 2.3 22.473 2.96C21.07 3.619 20.231 5.088 20.376 6.632L20.358 6.613C20.466 7.888 20.006 9.145 19.101 10.05C18.196 10.955 16.939 11.415 15.664 11.307L15.682 11.326C14.598 11.217 13.522 11.601 12.752 12.371C11.981 13.141 11.597 14.216 11.705 15.3L11.687 15.282C11.794 16.557 11.334 17.814 10.429 18.718C9.525 19.623 8.268 20.083 6.993 19.976L7.011 19.994C5.468 19.849 4 20.688 3.34 22.091C2.681 23.493 2.972 25.159 4.068 26.255C5.164 27.351 6.83 27.642 8.232 26.983C9.635 26.323 10.474 24.855 10.329 23.312L10.348 23.33C10.24 22.055 10.7 20.798 11.605 19.893C12.51 18.988 13.767 18.528 15.042 18.636Z" fill="white"/>
<path d="M8.33997 16.629C9.10697 15.857 9.49097 14.783 9.38497 13.7L9.40397 13.718C9.29597 12.443 9.75597 11.185 10.662 10.28C11.567 9.375 12.825 8.916 14.1 9.024L14.081 9.006C15.624 9.151 17.092 8.312 17.752 6.909C18.411 5.507 18.12 3.841 17.024 2.745C15.928 1.649 14.262 1.358 12.86 2.017C11.457 2.677 10.618 4.145 10.763 5.688L10.745 5.67C10.853 6.945 10.393 8.203 9.48797 9.107C8.58397 10.012 7.32597 10.472 6.05097 10.364L6.06897 10.382C4.37297 10.23 2.79397 11.265 2.25697 12.881C1.71997 14.497 2.36597 16.271 3.81597 17.164C5.26597 18.057 7.13997 17.836 8.34197 16.629H8.33997ZM39.317 6.655H42.287V21.108H39.317V6.655ZM43.969 16.159C43.96 14.034 45.233 12.114 47.194 11.295C49.154 10.476 51.415 10.919 52.92 12.419C54.426 13.918 54.879 16.177 54.067 18.141C53.256 20.105 51.341 21.385 49.216 21.385C47.823 21.401 46.482 20.856 45.495 19.873C44.509 18.89 43.958 17.552 43.969 16.159ZM51.493 16.159C51.459 14.909 50.424 13.919 49.173 13.942C47.923 13.965 46.924 14.992 46.936 16.242C46.948 17.493 47.965 18.501 49.216 18.5C49.836 18.517 50.435 18.273 50.867 17.828C51.3 17.384 51.527 16.778 51.493 16.159ZM66.3 11.209V20.609C66.3 23.935 63.706 25.341 61.073 25.341C59.183 25.482 57.373 24.556 56.381 22.941L58.915 21.476C59.334 22.322 60.233 22.819 61.172 22.723C61.765 22.805 62.364 22.613 62.799 22.201C63.234 21.789 63.459 21.202 63.409 20.605V19.7C62.704 20.563 61.631 21.04 60.518 20.987C57.789 20.92 55.611 18.689 55.611 15.959C55.611 13.228 57.789 10.997 60.518 10.93C61.631 10.877 62.704 11.354 63.409 12.217V11.207L66.3 11.209ZM63.41 15.96C63.451 14.981 62.892 14.075 61.999 13.672C61.105 13.269 60.057 13.45 59.35 14.129C58.643 14.808 58.42 15.848 58.786 16.757C59.153 17.666 60.035 18.261 61.015 18.26C61.646 18.304 62.266 18.079 62.723 17.641C63.179 17.203 63.428 16.592 63.41 15.96ZM67.982 16.159C67.974 14.035 69.246 12.115 71.206 11.296C73.166 10.478 75.427 10.921 76.932 12.42C78.437 13.919 78.889 16.178 78.079 18.141C77.268 20.104 75.353 21.385 73.229 21.385C71.836 21.401 70.495 20.856 69.508 19.873C68.522 18.89 67.971 17.552 67.982 16.159ZM75.506 16.159C75.472 14.909 74.437 13.919 73.186 13.942C71.936 13.965 70.937 14.992 70.949 16.242C70.961 17.493 71.978 18.501 73.229 18.5C73.849 18.517 74.448 18.273 74.88 17.828C75.313 17.384 75.54 16.778 75.506 16.159ZM79.861 8.556C79.861 7.572 80.659 6.774 81.643 6.774C82.627 6.774 83.425 7.572 83.425 8.556C83.425 9.54 82.627 10.338 81.643 10.338C80.663 10.328 79.871 9.536 79.861 8.556ZM80.161 11.209H83.132V21.109H80.157L80.161 11.209ZM95.956 16.159C96.026 17.481 95.565 18.775 94.677 19.756C93.789 20.737 92.546 21.323 91.224 21.385C90.109 21.446 89.027 21.002 88.275 20.177V25.068H85.305V11.209H88.275V12.139C89.027 11.314 90.11 10.871 91.225 10.932C92.547 10.994 93.79 11.58 94.678 12.561C95.566 13.543 96.026 14.837 95.956 16.159ZM92.986 16.159C92.954 14.866 91.885 13.841 90.591 13.862C89.298 13.884 88.264 14.944 88.275 16.238C88.286 17.531 89.337 18.574 90.631 18.574C91.275 18.603 91.9 18.355 92.35 17.894C92.799 17.433 93.031 16.802 92.986 16.159ZM105.121 18.138C105.121 20.415 103.142 21.385 101.004 21.385C99.237 21.545 97.55 20.612 96.747 19.029L99.32 17.564C99.534 18.301 100.235 18.788 101 18.732C101.712 18.732 102.069 18.514 102.069 18.119C102.069 17.029 97.198 17.604 97.198 14.179C97.198 12.02 99.02 10.932 101.079 10.932C102.655 10.882 104.134 11.693 104.939 13.05L102.405 14.416C102.178 13.886 101.656 13.542 101.079 13.545C100.564 13.545 100.247 13.745 100.247 14.099C100.251 15.228 105.121 14.475 105.121 18.138ZM115.97 11.209V21.109H113V20.178C112.305 21.011 111.252 21.46 110.17 21.386C108.17 21.386 106.47 19.961 106.47 17.286V11.209H109.44V16.851C109.388 17.329 109.551 17.805 109.884 18.151C110.216 18.497 110.683 18.68 111.162 18.651C112.251 18.651 113.003 18.018 113.003 16.612V11.212L115.97 11.209ZM133 15.03V21.108H130.03V15.287C130.03 14.297 129.555 13.664 128.605 13.664C127.615 13.664 127.06 14.357 127.06 15.525V21.108H124.091V15.287C124.091 14.297 123.616 13.664 122.665 13.664C121.675 13.664 121.121 14.357 121.121 15.525V21.108H118.151V11.208H121.121V12.118C121.747 11.298 122.746 10.851 123.774 10.931C124.808 10.881 125.792 11.377 126.367 12.237C127.036 11.337 128.12 10.844 129.238 10.931C131.511 10.932 133 12.555 133 15.03ZM135.512 11.148C136.729 11.148 137.716 10.161 137.716 8.944C137.716 7.727 136.729 6.74 135.512 6.74C134.295 6.74 133.308 7.727 133.308 8.944C133.308 10.161 134.295 11.148 135.512 11.148Z" fill="white"/>
</svg>
