<svg width="66" height="66" viewBox="0 0 66 66" fill="none" xmlns="http://www.w3.org/2000/svg">
<path d="M24.75 11L19.25 16.5L13.75 22L19.25 27.5L24.75 33L26.675 31.075L28.6 29.15L25.025 25.575L21.45 22L25.025 18.425L28.6 14.85L26.675 12.925L24.75 11ZM41.25 11L39.325 12.925L37.4 14.85L40.975 18.425L44.55 22L40.975 25.575L37.4 29.15L39.325 31.075L41.25 33L46.75 27.5L52.25 22L46.75 16.5L41.25 11ZM57.6867 52.4975L56.6198 48.2845C56.551 48.0161 56.4289 47.7643 56.2607 47.5441C56.0925 47.3239 55.8816 47.1399 55.6408 47.003C55.3986 46.8638 55.1309 46.7746 54.8537 46.7405C54.5764 46.7065 54.2951 46.7285 54.0265 46.805L41.5085 50.336L33 46.75L43.7663 43.9917C44.4989 43.3341 45.0308 42.4828 45.3008 41.536L44.4565 38.5L22 41.25H8.25V57.75H22L34.2512 60.401C34.9173 60.4614 35.588 60.4458 36.2505 60.3543L56.2155 54.9808C56.7386 54.8392 57.1862 54.5 57.464 54.0348C57.7393 53.5712 57.8194 53.0201 57.6867 52.4975ZM16.5 55H11V44H16.5V55ZM35.5355 57.7005C35.4113 57.7317 35.284 57.7483 35.156 57.75C35.0497 57.7513 34.9435 57.7402 34.8397 57.717L22 54.8982V44.055L42.1548 41.558L27.5 46.75L40.4827 52.888L41.3545 53.2372L42.2565 52.9815L54.1255 49.6348L54.8515 52.5002L35.5355 57.7005Z" fill="#A1C0FF"/>
</svg>
