<svg width="26" height="26" viewBox="0 0 26 26" fill="none" xmlns="http://www.w3.org/2000/svg">
<path d="M4.16541 4.16534C3.57975 4.75106 3.25073 5.54543 3.25073 6.37372C3.25073 7.20201 3.57975 7.99638 4.16541 8.58209L5.88467 10.3024C5.89786 10.2875 5.91159 10.273 5.92583 10.2591L10.2592 5.92576C10.2731 5.91152 10.2876 5.89779 10.3025 5.88459L8.58216 4.16534C7.99645 3.57968 7.20208 3.25066 6.37379 3.25066C5.5455 3.25066 4.75113 3.57968 4.16541 4.16534ZM11.4487 7.03076C11.4355 7.0457 11.4217 7.06016 11.4075 7.07409L7.07416 11.4074C7.06023 11.4217 7.04578 11.4354 7.03083 11.4486L17.4178 21.8356C18.007 22.405 18.7963 22.7202 19.6157 22.7133C20.4351 22.7063 21.2189 22.3777 21.7983 21.7983C22.3778 21.2189 22.7064 20.435 22.7133 19.6157C22.7203 18.7963 22.4051 18.007 21.8357 17.4178L11.4487 7.03076ZM17.4417 2.49918C17.4799 2.40102 17.547 2.3167 17.6339 2.25726C17.7209 2.19782 17.8238 2.16602 17.9292 2.16602C18.0345 2.16602 18.1374 2.19782 18.2244 2.25726C18.3114 2.3167 18.3784 2.40102 18.4167 2.49918L18.8825 3.68543C18.9085 3.75254 18.9481 3.81355 18.9988 3.86463C19.0495 3.91572 19.1102 3.95576 19.1772 3.98226L20.3591 4.45026C20.457 4.48925 20.5409 4.5567 20.6 4.6439C20.6591 4.7311 20.6908 4.83403 20.6908 4.93938C20.6908 5.04474 20.6591 5.14767 20.6 5.23487C20.5409 5.32207 20.457 5.38952 20.3591 5.42851L19.1782 5.89651C19.1113 5.92293 19.0505 5.96281 18.9997 6.01369C18.9488 6.06456 18.9089 6.12534 18.8825 6.19226L18.4167 7.37743C18.3784 7.47558 18.3114 7.5599 18.2244 7.61934C18.1374 7.67878 18.0345 7.71059 17.9292 7.71059C17.8238 7.71059 17.7209 7.67878 17.6339 7.61934C17.547 7.5599 17.4799 7.47558 17.4417 7.37743L16.9758 6.19118C16.9494 6.12426 16.9095 6.06348 16.8587 6.0126C16.8078 5.96173 16.747 5.92185 16.6801 5.89543L15.4992 5.42743C15.4014 5.38844 15.3174 5.32099 15.2583 5.23379C15.1992 5.14659 15.1676 5.04366 15.1676 4.9383C15.1676 4.83295 15.1992 4.73001 15.2583 4.64281C15.3174 4.55562 15.4014 4.48816 15.4992 4.44918L16.6801 3.98118C16.7471 3.95463 16.8079 3.91458 16.8588 3.86352C16.9097 3.81245 16.9495 3.75146 16.9758 3.68434L17.4417 2.49918ZM21.6309 9.89076C21.6692 9.7926 21.7362 9.70829 21.8232 9.64884C21.9102 9.5894 22.0131 9.5576 22.1184 9.5576C22.2238 9.5576 22.3267 9.5894 22.4136 9.64884C22.5006 9.70829 22.5676 9.7926 22.6059 9.89076L22.7749 10.323C22.8291 10.4584 22.9352 10.5657 23.0707 10.6188L23.5018 10.7899C23.5994 10.8291 23.683 10.8966 23.7418 10.9836C23.8007 11.0707 23.8321 11.1734 23.8321 11.2785C23.8321 11.3836 23.8007 11.4863 23.7418 11.5734C23.683 11.6605 23.5994 11.7279 23.5018 11.7671L23.0707 11.9383C23.0037 11.9647 22.943 12.0046 22.8921 12.0554C22.8412 12.1063 22.8013 12.1671 22.7749 12.234L22.6059 12.6673C22.5676 12.7655 22.5006 12.8498 22.4136 12.9093C22.3267 12.9687 22.2238 13.0005 22.1184 13.0005C22.0131 13.0005 21.9102 12.9687 21.8232 12.9093C21.7362 12.8498 21.6692 12.7655 21.6309 12.6673L21.4608 12.234C21.4345 12.1672 21.3948 12.1065 21.3441 12.0556C21.2935 12.0047 21.2329 11.9648 21.1662 11.9383L20.735 11.7671C20.6375 11.7279 20.5539 11.6605 20.495 11.5734C20.4361 11.4863 20.4047 11.3836 20.4047 11.2785C20.4047 11.1734 20.4361 11.0707 20.495 10.9836C20.5539 10.8966 20.6375 10.8291 20.735 10.7899L21.1662 10.6188C21.2329 10.5922 21.2935 10.5523 21.3441 10.5014C21.3948 10.4505 21.4345 10.3898 21.4608 10.323L21.6309 9.88968V9.89076ZM5.56075 16.5825C5.59902 16.4844 5.66603 16.4 5.75301 16.3406C5.84 16.2812 5.9429 16.2493 6.04825 16.2493C6.1536 16.2493 6.2565 16.2812 6.34348 16.3406C6.43046 16.4 6.49747 16.4844 6.53575 16.5825L6.70583 17.0158C6.73185 17.0828 6.77146 17.1437 6.82218 17.1946C6.8729 17.2455 6.93361 17.2853 7.0005 17.3116L7.43166 17.4817C7.52954 17.5207 7.61347 17.5881 7.6726 17.6753C7.73173 17.7625 7.76333 17.8654 7.76333 17.9708C7.76333 18.0762 7.73173 18.1791 7.6726 18.2663C7.61347 18.3535 7.52954 18.4209 7.43166 18.4599L7.0005 18.6311C6.93375 18.6576 6.87315 18.6975 6.82246 18.7484C6.77177 18.7992 6.73208 18.86 6.70583 18.9268L6.53575 19.3602C6.49747 19.4583 6.43046 19.5426 6.34348 19.6021C6.2565 19.6615 6.1536 19.6933 6.04825 19.6933C5.9429 19.6933 5.84 19.6615 5.75301 19.6021C5.66603 19.5426 5.59902 19.4583 5.56075 19.3602L5.39066 18.9268C5.36442 18.86 5.32472 18.7992 5.27404 18.7484C5.22335 18.6975 5.16275 18.6576 5.096 18.6311L4.66483 18.4599C4.56696 18.4209 4.48303 18.3535 4.4239 18.2663C4.36477 18.1791 4.33316 18.0762 4.33316 17.9708C4.33316 17.8654 4.36477 17.7625 4.4239 17.6753C4.48303 17.5881 4.56696 17.5207 4.66483 17.4817L5.096 17.3116C5.16285 17.285 5.22352 17.2449 5.27421 17.1938C5.3249 17.1428 5.36455 17.0818 5.39066 17.0148L5.56075 16.5825Z" fill="#A1C0FF"/>
</svg>
