<svg width="69" height="69" viewBox="0 0 69 69" fill="none" xmlns="http://www.w3.org/2000/svg">
<path d="M34.5 63.25C35.2015 63.25 35.8541 62.9251 37.1622 62.2725L47.656 57.0486C52.3049 54.74 54.625 53.5814 54.625 51.75V28.75M34.5 63.25C33.7985 63.25 33.1459 62.9251 31.8378 62.2725L21.344 57.0486C16.6951 54.74 14.375 53.5814 14.375 51.75V28.75M34.5 63.25V40.25M54.625 28.75C54.625 26.9186 52.302 25.7629 47.6589 23.4514L37.1622 18.2246C35.8512 17.5749 35.2015 17.25 34.5 17.25M54.625 28.75C54.625 30.5814 52.302 31.7371 47.6589 34.0486L37.1622 39.2754C35.8541 39.9251 35.2015 40.25 34.5 40.25M14.375 28.75C14.375 26.9186 16.6951 25.76 21.344 23.4514L31.8378 18.2275C33.1459 17.5749 33.7985 17.25 34.5 17.25M14.375 28.75C14.375 30.5814 16.698 31.7371 21.3411 34.0486L31.8378 39.2754C33.1459 39.9251 33.7985 40.25 34.5 40.25M34.5 17.25V5.75M63.25 60.375L54.625 53.1875M5.75 60.375L14.375 53.1875" stroke="#A1C0FF" stroke-width="3" stroke-linecap="round" stroke-linejoin="round"/>
</svg>
