<svg width="63" height="63" viewBox="0 0 63 63" fill="none" xmlns="http://www.w3.org/2000/svg">
<path d="M6.5625 18.375C6.5625 19.9262 6.86804 21.4623 7.46167 22.8954C8.05531 24.3286 8.92541 25.6308 10.0223 26.7277C11.1192 27.8246 12.4214 28.6947 13.8546 29.2883C15.2877 29.882 16.8238 30.1875 18.375 30.1875C19.9262 30.1875 21.4623 29.882 22.8954 29.2883C24.3286 28.6947 25.6308 27.8246 26.7277 26.7277C27.8246 25.6308 28.6947 24.3286 29.2883 22.8954C29.882 21.4623 30.1875 19.9262 30.1875 18.375C30.1875 15.2421 28.943 12.2376 26.7277 10.0223C24.5124 7.80703 21.5079 6.5625 18.375 6.5625C15.2421 6.5625 12.2376 7.80703 10.0223 10.0223C7.80703 12.2376 6.5625 15.2421 6.5625 18.375ZM6.5625 44.625C6.5625 46.1762 6.86804 47.7123 7.46167 49.1455C8.05531 50.5786 8.92541 51.8808 10.0223 52.9777C11.1192 54.0746 12.4214 54.9447 13.8546 55.5383C15.2877 56.132 16.8238 56.4375 18.375 56.4375C19.9262 56.4375 21.4623 56.132 22.8954 55.5383C24.3286 54.9447 25.6308 54.0746 26.7277 52.9777C27.8246 51.8808 28.6947 50.5786 29.2883 49.1455C29.882 47.7123 30.1875 46.1762 30.1875 44.625C30.1875 41.4921 28.943 38.4876 26.7277 36.2723C24.5124 34.057 21.5079 32.8125 18.375 32.8125C15.2421 32.8125 12.2376 34.057 10.0223 36.2723C7.80703 38.4876 6.5625 41.4921 6.5625 44.625ZM32.8125 44.625C32.8125 47.7579 34.057 50.7624 36.2723 52.9777C38.4876 55.193 41.4921 56.4375 44.625 56.4375C47.7579 56.4375 50.7624 55.193 52.9777 52.9777C55.193 50.7624 56.4375 47.7579 56.4375 44.625C56.4375 41.4921 55.193 38.4876 52.9777 36.2723C50.7624 34.057 47.7579 32.8125 44.625 32.8125C41.4921 32.8125 38.4876 34.057 36.2723 36.2723C34.057 38.4876 32.8125 41.4921 32.8125 44.625ZM24.9375 18.375C24.9375 20.1155 24.2461 21.7847 23.0154 23.0154C21.7847 24.2461 20.1155 24.9375 18.375 24.9375C16.6345 24.9375 14.9653 24.2461 13.7346 23.0154C12.5039 21.7847 11.8125 20.1155 11.8125 18.375C11.8125 16.6345 12.5039 14.9653 13.7346 13.7346C14.9653 12.5039 16.6345 11.8125 18.375 11.8125C20.1155 11.8125 21.7847 12.5039 23.0154 13.7346C24.2461 14.9653 24.9375 16.6345 24.9375 18.375ZM24.9375 44.625C24.9375 46.3655 24.2461 48.0347 23.0154 49.2654C21.7847 50.4961 20.1155 51.1875 18.375 51.1875C16.6345 51.1875 14.9653 50.4961 13.7346 49.2654C12.5039 48.0347 11.8125 46.3655 11.8125 44.625C11.8125 42.8845 12.5039 41.2153 13.7346 39.9846C14.9653 38.7539 16.6345 38.0625 18.375 38.0625C20.1155 38.0625 21.7847 38.7539 23.0154 39.9846C24.2461 41.2153 24.9375 42.8845 24.9375 44.625ZM51.1875 44.625C51.1875 46.3655 50.4961 48.0347 49.2654 49.2654C48.0347 50.4961 46.3655 51.1875 44.625 51.1875C42.8845 51.1875 41.2153 50.4961 39.9846 49.2654C38.7539 48.0347 38.0625 46.3655 38.0625 44.625C38.0625 42.8845 38.7539 41.2153 39.9846 39.9846C41.2153 38.7539 42.8845 38.0625 44.625 38.0625C46.3655 38.0625 48.0347 38.7539 49.2654 39.9846C50.4961 41.2153 51.1875 42.8845 51.1875 44.625ZM46.0031 29.2819L46.7329 27.6124C48.0072 24.6537 50.3453 22.281 53.2849 20.9633L55.5266 19.9657C56.742 19.4276 56.742 17.661 55.5266 17.1229L53.4109 16.1805C50.3942 14.83 48.0132 12.37 46.7617 9.31087L46.0136 7.50487C45.9024 7.2276 45.7106 6.98999 45.4632 6.82263C45.2157 6.65527 44.9238 6.56584 44.625 6.56584C44.3262 6.56584 44.0343 6.65527 43.7868 6.82263C43.5394 6.98999 43.3476 7.2276 43.2364 7.50487L42.4883 9.31087C41.2368 12.37 38.8558 14.83 35.8391 16.1805L33.7234 17.1229C32.508 17.661 32.508 19.4276 33.7234 19.9657L35.9651 20.9633C38.9047 22.281 41.2428 24.6537 42.5171 27.6124L43.2469 29.2819C43.3614 29.5527 43.5532 29.7838 43.7983 29.9463C44.0434 30.1088 44.3309 30.1954 44.625 30.1954C44.9191 30.1954 45.2066 30.1088 45.4517 29.9463C45.6968 29.7838 45.8886 29.5527 46.0031 29.2819Z" fill="#A1C0FF"/>
</svg>
