<svg width="36" height="36" viewBox="0 0 36 36" fill="none" xmlns="http://www.w3.org/2000/svg">
<g clip-path="url(#clip0_152_555)">
<path d="M9.16541 9.16534C8.57975 9.75106 8.25073 10.5454 8.25073 11.3737C8.25073 12.202 8.57975 12.9964 9.16541 13.5821L10.8847 15.3024C10.8979 15.2875 10.9116 15.273 10.9258 15.2591L15.2592 10.9258C15.2731 10.9115 15.2876 10.8978 15.3025 10.8846L13.5822 9.16534C12.9964 8.57968 12.2021 8.25066 11.3738 8.25066C10.5455 8.25066 9.75113 8.57968 9.16541 9.16534ZM16.4487 12.0308C16.4355 12.0457 16.4217 12.0602 16.4075 12.0741L12.0742 16.4074C12.0602 16.4217 12.0458 16.4354 12.0308 16.4486L22.4178 26.8356C23.007 27.405 23.7963 27.7202 24.6157 27.7133C25.4351 27.7063 26.2189 27.3777 26.7983 26.7983C27.3778 26.2189 27.7064 25.435 27.7133 24.6157C27.7203 23.7963 27.4051 23.007 26.8357 22.4178L16.4487 12.0308ZM22.4417 7.49918C22.4799 7.40102 22.547 7.3167 22.6339 7.25726C22.7209 7.19782 22.8238 7.16602 22.9292 7.16602C23.0345 7.16602 23.1374 7.19782 23.2244 7.25726C23.3114 7.3167 23.3784 7.40102 23.4167 7.49918L23.8825 8.68543C23.9085 8.75254 23.9481 8.81355 23.9988 8.86463C24.0495 8.91572 24.1102 8.95576 24.1772 8.98226L25.3591 9.45026C25.457 9.48925 25.5409 9.5567 25.6 9.6439C25.6591 9.7311 25.6908 9.83403 25.6908 9.93938C25.6908 10.0447 25.6591 10.1477 25.6 10.2349C25.5409 10.3221 25.457 10.3895 25.3591 10.4285L24.1782 10.8965C24.1113 10.9229 24.0505 10.9628 23.9997 11.0137C23.9488 11.0646 23.9089 11.1253 23.8825 11.1923L23.4167 12.3774C23.3784 12.4756 23.3114 12.5599 23.2244 12.6193C23.1374 12.6788 23.0345 12.7106 22.9292 12.7106C22.8238 12.7106 22.7209 12.6788 22.6339 12.6193C22.547 12.5599 22.4799 12.4756 22.4417 12.3774L21.9758 11.1912C21.9494 11.1243 21.9095 11.0635 21.8587 11.0126C21.8078 10.9617 21.747 10.9218 21.6801 10.8954L20.4992 10.4274C20.4014 10.3884 20.3174 10.321 20.2583 10.2338C20.1992 10.1466 20.1676 10.0437 20.1676 9.9383C20.1676 9.83295 20.1992 9.73001 20.2583 9.64281C20.3174 9.55562 20.4014 9.48816 20.4992 9.44918L21.6801 8.98118C21.7471 8.95463 21.8079 8.91458 21.8588 8.86352C21.9097 8.81245 21.9495 8.75146 21.9758 8.68434L22.4417 7.49918ZM26.6309 14.8908C26.6692 14.7926 26.7362 14.7083 26.8232 14.6488C26.9102 14.5894 27.0131 14.5576 27.1184 14.5576C27.2238 14.5576 27.3267 14.5894 27.4136 14.6488C27.5006 14.7083 27.5676 14.7926 27.6059 14.8908L27.7749 15.323C27.8291 15.4584 27.9352 15.5657 28.0707 15.6188L28.5018 15.7899C28.5994 15.8291 28.683 15.8966 28.7418 15.9836C28.8007 16.0707 28.8321 16.1734 28.8321 16.2785C28.8321 16.3836 28.8007 16.4863 28.7418 16.5734C28.683 16.6605 28.5994 16.7279 28.5018 16.7671L28.0707 16.9383C28.0037 16.9647 27.943 17.0046 27.8921 17.0554C27.8412 17.1063 27.8013 17.1671 27.7749 17.234L27.6059 17.6673C27.5676 17.7655 27.5006 17.8498 27.4136 17.9093C27.3267 17.9687 27.2238 18.0005 27.1184 18.0005C27.0131 18.0005 26.9102 17.9687 26.8232 17.9093C26.7362 17.8498 26.6692 17.7655 26.6309 17.6673L26.4608 17.234C26.4345 17.1672 26.3948 17.1065 26.3441 17.0556C26.2935 17.0047 26.2329 16.9648 26.1662 16.9383L25.735 16.7671C25.6375 16.7279 25.5539 16.6605 25.495 16.5734C25.4361 16.4863 25.4047 16.3836 25.4047 16.2785C25.4047 16.1734 25.4361 16.0707 25.495 15.9836C25.5539 15.8966 25.6375 15.8291 25.735 15.7899L26.1662 15.6188C26.2329 15.5922 26.2935 15.5523 26.3441 15.5014C26.3948 15.4505 26.4345 15.3898 26.4608 15.323L26.6309 14.8897V14.8908ZM10.5607 21.5825C10.599 21.4844 10.666 21.4 10.753 21.3406C10.84 21.2812 10.9429 21.2493 11.0482 21.2493C11.1536 21.2493 11.2565 21.2812 11.3435 21.3406C11.4305 21.4 11.4975 21.4844 11.5357 21.5825L11.7058 22.0158C11.7318 22.0828 11.7715 22.1437 11.8222 22.1946C11.8729 22.2455 11.9336 22.2853 12.0005 22.3116L12.4317 22.4817C12.5295 22.5207 12.6135 22.5881 12.6726 22.6753C12.7317 22.7625 12.7633 22.8654 12.7633 22.9708C12.7633 23.0762 12.7317 23.1791 12.6726 23.2663C12.6135 23.3535 12.5295 23.4209 12.4317 23.4599L12.0005 23.6311C11.9337 23.6576 11.8731 23.6975 11.8225 23.7484C11.7718 23.7992 11.7321 23.86 11.7058 23.9268L11.5357 24.3602C11.4975 24.4583 11.4305 24.5426 11.3435 24.6021C11.2565 24.6615 11.1536 24.6933 11.0482 24.6933C10.9429 24.6933 10.84 24.6615 10.753 24.6021C10.666 24.5426 10.599 24.4583 10.5607 24.3602L10.3907 23.9268C10.3644 23.86 10.3247 23.7992 10.274 23.7484C10.2233 23.6975 10.1627 23.6576 10.096 23.6311L9.66483 23.4599C9.56696 23.4209 9.48303 23.3535 9.4239 23.2663C9.36477 23.1791 9.33316 23.0762 9.33316 22.9708C9.33316 22.8654 9.36477 22.7625 9.4239 22.6753C9.48303 22.5881 9.56696 22.5207 9.66483 22.4817L10.096 22.3116C10.1629 22.285 10.2235 22.2449 10.2742 22.1938C10.3249 22.1428 10.3645 22.0818 10.3907 22.0148L10.5607 21.5825Z" fill="#A1C0FF"/>
</g>
<defs>
<clipPath id="clip0_152_555">
<rect width="26" height="26" fill="white" transform="translate(5 5)"/>
</clipPath>
</defs>
</svg>
